<svg width="98" height="110" viewBox="0 0 98 110" fill="none" xmlns="http://www.w3.org/2000/svg">
<g filter="url(#filter0_d_13_44)">
<rect x="5.86325" y="1.67522" width="12.5641" height="81.2479" fill="url(#paint0_linear_13_44)"/>
<rect x="43.5555" y="1.67521" width="12.5641" height="81.2479" fill="url(#paint1_linear_13_44)"/>
<path d="M10.8131 5.07701L18.5497 1.7968L52.6999 82.8734L43.7974 82.8728L10.8131 5.07701Z" fill="url(#paint2_linear_13_44)"/>
<g filter="url(#filter1_d_13_44)">
<path d="M44.3932 1.67523L56.3466 1.67521L72.087 44.3932L85.4607 82.9231H97.0657L44.3932 1.67523Z" fill="url(#paint3_linear_13_44)"/>
<path d="M85.4607 1.67523H97.0657L70.8416 42.4722L44.3932 82.9231H56.3466L85.4607 1.67523Z" fill="url(#paint4_linear_13_44)"/>
</g>
</g>
<g filter="url(#filter2_d_13_44)">
<path d="M21.9933 93.2189H23.4675L30.0644 103.188H30.1013C30.0767 102.832 30.0583 102.451 30.046 102.046C30.0215 101.702 30.003 101.308 29.9907 100.866C29.9907 100.412 29.9907 99.951 29.9907 99.4842V93.2189H31.4649V105.786H29.9907L23.3937 95.7803H23.3569C23.3692 96.1488 23.3876 96.5358 23.4122 96.9412C23.4245 97.2975 23.4367 97.6967 23.449 98.139C23.4613 98.5812 23.4675 99.0358 23.4675 99.5026V105.786H21.9933V93.2189ZM34.7161 93.2189H42.4187V94.6378H36.264V98.6549H41.9764V100.037H36.264V104.367H42.603V105.786H34.7161V93.2189ZM47.4946 99.392L43.8644 93.2189H45.615L48.5818 98.3233L51.5301 93.2189H53.2807L49.5584 99.5395L53.2992 105.786H51.5117L48.4896 100.535L45.615 105.786H43.8644L47.4946 99.392ZM56.7226 93.2189V101.069C56.7226 101.769 56.8209 102.347 57.0175 102.801C57.2263 103.243 57.4966 103.593 57.8283 103.851C58.16 104.109 58.5346 104.288 58.9523 104.386C59.3823 104.484 59.8184 104.533 60.2607 104.533C60.7029 104.533 61.1329 104.484 61.5506 104.386C61.9683 104.288 62.343 104.109 62.6747 103.851C63.0063 103.593 63.2705 103.243 63.467 102.801C63.6636 102.347 63.7619 101.769 63.7619 101.069V93.2189H65.3098V101.456C65.3098 102.095 65.1869 102.691 64.9412 103.243C64.7078 103.796 64.37 104.281 63.9277 104.699C63.4855 105.105 62.9511 105.424 62.3245 105.657C61.698 105.891 61.0039 106.007 60.2422 106.007C58.6084 106.007 57.3553 105.614 56.4831 104.828C55.6108 104.03 55.1747 102.906 55.1747 101.456V93.2189H56.7226ZM68.8077 93.2189H70.7794L73.6172 100.7C73.7769 101.13 73.9243 101.53 74.0594 101.898C74.1946 102.254 74.3113 102.574 74.4096 102.856C74.5324 103.176 74.6368 103.471 74.7228 103.741H74.7597C74.8334 103.471 74.9255 103.176 75.0361 102.856C75.1344 102.574 75.2449 102.254 75.3678 101.898C75.4906 101.53 75.6381 101.13 75.81 100.7L78.7031 93.2189H80.6749L81.3198 105.786H79.7535L79.4402 98.8761C79.4157 98.2741 79.3972 97.7643 79.385 97.3466C79.3727 96.9289 79.3665 96.5849 79.3665 96.3147V95.5407H79.3297C79.256 95.725 79.1638 95.9768 79.0533 96.2962C78.955 96.5665 78.826 96.9166 78.6663 97.3466C78.5189 97.7643 78.3346 98.2741 78.1135 98.8761L75.5152 105.786H73.9489L71.3322 98.8761C71.0988 98.2864 70.9084 97.7827 70.761 97.365C70.6135 96.9351 70.4907 96.5849 70.3924 96.3147C70.2818 95.9953 70.1958 95.7373 70.1344 95.5407H70.0976C70.1099 95.7373 70.1221 95.9953 70.1344 96.3147C70.1467 96.8306 70.1283 97.6844 70.0791 98.8761L69.7106 105.786H68.1443L68.8077 93.2189Z" fill="url(#paint5_linear_13_44)"/>
</g>
<defs>
<filter id="filter0_d_13_44" x="5.00679e-06" y="1.67521" width="97.0657" height="90.2607" filterUnits="userSpaceOnUse" color-interpolation-filters="sRGB">
<feFlood flood-opacity="0" result="BackgroundImageFix"/>
<feColorMatrix in="SourceAlpha" type="matrix" values="0 0 0 0 0 0 0 0 0 0 0 0 0 0 0 0 0 0 127 0" result="hardAlpha"/>
<feOffset dx="-3.35043" dy="3.35043"/>
<feGaussianBlur stdDeviation="1.25641"/>
<feComposite in2="hardAlpha" operator="out"/>
<feColorMatrix type="matrix" values="0 0 0 0 0 0 0 0 0 0 0 0 0 0 0 0 0 0 0.25 0"/>
<feBlend mode="normal" in2="BackgroundImageFix" result="effect1_dropShadow_13_44"/>
<feBlend mode="normal" in="SourceGraphic" in2="effect1_dropShadow_13_44" result="shape"/>
</filter>
<filter id="filter1_d_13_44" x="40.2052" y="-2.38419e-07" width="56.8605" height="84.5983" filterUnits="userSpaceOnUse" color-interpolation-filters="sRGB">
<feFlood flood-opacity="0" result="BackgroundImageFix"/>
<feColorMatrix in="SourceAlpha" type="matrix" values="0 0 0 0 0 0 0 0 0 0 0 0 0 0 0 0 0 0 127 0" result="hardAlpha"/>
<feOffset dx="-2.51282"/>
<feGaussianBlur stdDeviation="0.837607"/>
<feComposite in2="hardAlpha" operator="out"/>
<feColorMatrix type="matrix" values="0 0 0 0 0 0 0 0 0 0 0 0 0 0 0 0 0 0 0.25 0"/>
<feBlend mode="normal" in2="BackgroundImageFix" result="effect1_dropShadow_13_44"/>
<feBlend mode="normal" in="SourceGraphic" in2="effect1_dropShadow_13_44" result="shape"/>
</filter>
<filter id="filter2_d_13_44" x="20.318" y="93.2189" width="62.677" height="16.139" filterUnits="userSpaceOnUse" color-interpolation-filters="sRGB">
<feFlood flood-opacity="0" result="BackgroundImageFix"/>
<feColorMatrix in="SourceAlpha" type="matrix" values="0 0 0 0 0 0 0 0 0 0 0 0 0 0 0 0 0 0 127 0" result="hardAlpha"/>
<feOffset dy="1.67521"/>
<feGaussianBlur stdDeviation="0.837607"/>
<feComposite in2="hardAlpha" operator="out"/>
<feColorMatrix type="matrix" values="0 0 0 0 0 0 0 0 0 0 0 0 0 0 0 0 0 0 0.25 0"/>
<feBlend mode="normal" in2="BackgroundImageFix" result="effect1_dropShadow_13_44"/>
<feBlend mode="normal" in="SourceGraphic" in2="effect1_dropShadow_13_44" result="shape"/>
</filter>
<linearGradient id="paint0_linear_13_44" x1="12.1453" y1="1.67522" x2="12.1453" y2="82.9231" gradientUnits="userSpaceOnUse">
<stop offset="0.629808" stop-color="#535050"/>
<stop offset="1" stop-color="#171616"/>
</linearGradient>
<linearGradient id="paint1_linear_13_44" x1="49.8376" y1="1.67521" x2="49.8376" y2="82.9231" gradientUnits="userSpaceOnUse">
<stop offset="0.629808" stop-color="#535050"/>
<stop offset="1" stop-color="#171616"/>
</linearGradient>
<linearGradient id="paint2_linear_13_44" x1="14.6814" y1="3.4369" x2="49.0224" y2="84.4326" gradientUnits="userSpaceOnUse">
<stop offset="0.629808" stop-color="#535050"/>
<stop offset="1" stop-color="#171616"/>
</linearGradient>
<linearGradient id="paint3_linear_13_44" x1="70.7294" y1="1.67521" x2="70.7294" y2="82.9231" gradientUnits="userSpaceOnUse">
<stop offset="0.596154" stop-color="#EA7305"/>
<stop offset="1" stop-color="#9F540D"/>
</linearGradient>
<linearGradient id="paint4_linear_13_44" x1="70.7294" y1="1.67521" x2="70.7294" y2="82.9231" gradientUnits="userSpaceOnUse">
<stop offset="0.596154" stop-color="#EA7305"/>
<stop offset="1" stop-color="#9F540D"/>
</linearGradient>
<linearGradient id="paint5_linear_13_44" x1="53.6068" y1="88.7863" x2="53.6068" y2="119.359" gradientUnits="userSpaceOnUse">
<stop stop-color="#868484"/>
<stop offset="0.471154" stop-color="#515151"/>
</linearGradient>
</defs>
</svg>
